<svg width="20px" height="20px" viewBox="0 0 20 20" version="1.1" xmlns="http://www.w3.org/2000/svg" xmlns:xlink="http://www.w3.org/1999/xlink">
    <title>Cart</title>
    <g id="Designs" stroke="none" stroke-width="1" fill="#fff" fill-rule="evenodd" class="white">
        <g id="W8_PDPBouquetsPlants_DT" transform="translate(-1225.000000, -20.000000)">
            <g id="Group-3" transform="translate(1225.000000, 21.000000)">
                <path d="M2.27373675e-13,-2.27373675e-13 L1.72341251,-2.27373675e-13 C2.19999023,-2.27461221e-13 2.61034627,0.336317227 2.70393926,0.803614435 L5.14270443,12.9800414 C5.23629741,13.4473386 5.64665345,13.7836559 6.12323118,13.7836559 L17.8056955,13.7836559 L17.8056955,13.7836559" id="Path-3"></path>
                <path d="M3.1987737,3.6 L17.8900245,3.6 C18.4423092,3.6 18.8900245,4.04771525 18.8900245,4.6 C18.8900245,4.66734135 18.8832222,4.73451049 18.8697213,4.8004846 L17.9693078,9.2004846 C17.8740764,9.66584662 17.4646171,10 16.989611,10 L4.59544768,10 L4.59544768,10" id="Path-4"></path>
                <circle id="Oval" fill="#3B3B3B" cx="7.5" cy="17.5" r="1.5"></circle>
                <circle id="Oval-Copy-5" fill="#3B3B3B" cx="15.5" cy="17.5" r="1.5"></circle>
            </g>
        </g>
    </g>
</svg>