<svg width="29px" height="29px" viewBox="0 0 29 29" version="1.1" xmlns="http://www.w3.org/2000/svg" xmlns:xlink="http://www.w3.org/1999/xlink">
    <g id="Designs" stroke="none" stroke-width="1" fill="none" fill-rule="evenodd">
        <g id="W1_Home_DT" transform="translate(-33.000000, -3489.000000)" stroke="#5B5B5B" stroke-width="0.8">
            <g id="Group-5" transform="translate(19.000000, 3454.000000)">
                <g id="Group-17-Copy-2" transform="translate(14.000000, 35.000000)">
                    <path stroke="#fff" d="M14.0486195,14.0487782 L18.0292619,18.0294206 C20.2275587,20.2277174 23.7917207,20.2277174 25.9900175,18.0294206 C28.1888435,15.8311238 28.1888435,12.2669618 25.9900175,10.068665 C23.7917207,7.87036824 20.2275587,7.87036824 18.0292619,10.068665 L14.0486195,14.0487782 Z" id="Stroke-1"></path>
                    <path stroke="#fff" d="M14.0486195,14.0487782 L18.0292619,10.068665 C20.2275587,7.87036824 20.2275587,4.30567704 18.0292619,2.10790944 C15.8309651,-0.09091656 12.2668031,-0.09091656 10.0685063,2.10790944 C7.87020948,4.30567704 7.87020948,7.87036824 10.0685063,10.068665 L14.0486195,14.0487782 Z" id="Stroke-3"></path>
                    <path stroke="#fff" d="M4.4661834,4.76115948 L4.4661834,10.3902599 C4.4661834,13.4993099 6.986763,16.0193603 10.095813,16.0193603 C13.204863,16.0193603 15.7243842,13.4993099 15.7243842,10.3902599 C15.7243842,7.28173908 13.204863,4.76115948 10.095813,4.76115948 L4.4661834,4.76115948 Z" id="Stroke-5"></path>
                    <path stroke="#fff" d="M23.6315848,23.9262962 L23.6315848,18.2971958 C23.6315848,15.1881458 21.1110052,12.6680954 18.0019552,12.6680954 C14.8929052,12.6680954 12.373384,15.1881458 12.373384,18.2971958 C12.373384,21.4057166 14.8929052,23.9262962 18.0019552,23.9262962 L23.6315848,23.9262962 Z" id="Stroke-7"></path>
                    <path stroke="#fff" d="M4.4661834,23.9262962 L10.095813,23.9262962 C13.204863,23.9262962 15.7243842,21.4057166 15.7243842,18.2971958 C15.7243842,15.1881458 13.204863,12.6680954 10.095813,12.6680954 C6.986763,12.6680954 4.4661834,15.1881458 4.4661834,18.2971958 L4.4661834,23.9262962 Z" id="Stroke-9"></path>
                    <path stroke="#fff" d="M14.0486195,14.0487782 L10.0685063,18.0294206 C7.87020948,20.2277174 7.87020948,23.7918794 10.0685063,25.9901762 C12.2668031,28.188473 15.8309651,28.188473 18.0292619,25.9901762 C20.2275587,23.7918794 20.2275587,20.2277174 18.0292619,18.0294206 L14.0486195,14.0487782 Z" id="Stroke-11"></path>
                    <path stroke="#fff" d="M14.0486195,14.0487782 L10.0685063,10.068665 C7.87020948,7.87036824 4.30604748,7.87036824 2.10775068,10.068665 C-0.09107532,12.2669618 -0.09107532,15.8311238 2.10775068,18.0294206 C4.30604748,20.2277174 7.87020948,20.2277174 10.0685063,18.0294206 L14.0486195,14.0487782 Z" id="Stroke-13"></path>
                    <path stroke="#fff" d="M23.6315848,4.76115948 L18.0019552,4.76115948 C14.8929052,4.76115948 12.373384,7.28173908 12.373384,10.3902599 C12.373384,13.4993099 14.8929052,16.0193603 18.0019552,16.0193603 C21.1110052,16.0193603 23.6315848,13.4993099 23.6315848,10.3902599 L23.6315848,4.76115948 Z" id="Stroke-15"></path>
                </g>
            </g>
        </g>
    </g>
</svg>